<?xml version="1.0" encoding="UTF-8"?><svg id="Layer_2" xmlns="http://www.w3.org/2000/svg" xmlns:xlink="http://www.w3.org/1999/xlink" viewBox="0 0 381.21 392.62"><defs><style>.cls-1{fill:url(#Unbenannter_Verlauf_14);}.cls-2{fill:#262a61;font-family:ProximaNova-Bold, 'Proxima Nova';font-size:41px;letter-spacing:.2em;}</style><linearGradient id="Unbenannter_Verlauf_14" x1="64.05" y1="267.95" x2="259.81" y2="72.19" gradientTransform="matrix(1, 0, 0, 1, 0, 0)" gradientUnits="userSpaceOnUse"><stop offset="0" stop-color="#262a61"/><stop offset=".11" stop-color="#2b2a60"/><stop offset=".25" stop-color="#3c2d60"/><stop offset=".41" stop-color="#57315f"/><stop offset=".59" stop-color="#7d375e"/><stop offset=".77" stop-color="#ad3f5c"/><stop offset=".97" stop-color="#e8485b"/><stop offset=".99" stop-color="#f04a5b"/></linearGradient></defs><g id="Ebene_1"><path class="cls-1" d="M284.58,268.48c29.53-29.86,45.79-69.3,45.79-111.07,0-5.39-4.37-9.76-9.76-9.76-5.39,0-9.76,4.37-9.76,9.76,0,36.59-14.26,71.15-40.15,97.33-25.86,26.15-59.99,40.55-96.11,40.55-36.11,0-70.24-14.4-96.11-40.55-25.89-26.18-40.15-60.75-40.15-97.33,0-36.59,14.26-71.15,40.15-97.33,25.69-25.98,59.55-40.36,95.4-40.54,7.81,.09,14.13,6.59,14.13,14.57,0,8.04-6.42,14.57-14.3,14.57-.36,0-.71,.02-1.05,.06-26.98,.85-52.33,11.97-71.69,31.55-20.13,20.35-31.21,47.24-31.21,75.71,0,28.47,11.08,55.36,31.21,75.71,20.16,20.38,46.8,31.61,75.02,31.61,28.22,0,54.87-11.22,75.03-31.61,20.13-20.35,31.21-47.24,31.21-75.71,0-18.8-15.18-34.1-33.84-34.1-18.66,0-33.84,15.3-33.84,34.1,0,.28,.02,.55,.04,.83-.02,.27-.04,.55-.04,.83,0,21.51-17.65,39.01-39.34,39.01-21.69,0-39.34-17.5-39.34-39.01,0-21.51,17.65-39.01,39.34-39.01,5.39,0,9.76-4.37,9.76-9.76,0-5.39-4.37-9.76-9.76-9.76-32.46,0-58.86,26.26-58.86,58.54,0,32.28,26.41,58.54,58.86,58.54,32.46,0,58.86-26.26,58.86-58.54,0-.28-.02-.55-.04-.83,.02-.27,.04-.55,.04-.83,0-8.04,6.42-14.57,14.31-14.57,7.89,0,14.31,6.54,14.31,14.57,0,23.29-9.08,45.3-25.57,61.98-16.46,16.64-38.17,25.81-61.14,25.81-22.97,0-44.68-9.17-61.14-25.81-16.49-16.67-25.57-38.68-25.57-61.98,0-23.29,9.08-45.3,25.57-61.97,16.46-16.64,38.17-25.81,61.14-25.81,.9,0,1.77-.13,2.59-.36,16.35-2.39,28.96-16.61,28.96-33.75C207.55,15.95,193.4,1.07,175.64,.06,175.3,.02,174.94,0,174.59,0c-.2,0-.39,0-.59,0-.1,0-.19,0-.29,0s-.19,.01-.29,.01c-40.94,.31-79.55,16.73-108.83,46.34-29.53,29.86-45.79,69.3-45.79,111.07,0,41.76,16.26,81.21,45.79,111.07,29.56,29.89,68.62,46.35,109.99,46.35s80.43-16.46,109.99-46.35Z"/><text class="cls-2" transform="translate(0 377.54)"><tspan x="0" y="0">Crystal Crypto</tspan></text></g></svg>